<svg xmlns="http://www.w3.org/2000/svg" xml:space="preserve" viewBox="0 0 90 120"><path fill="none" stroke="#480E2A" stroke-linecap="round" stroke-linejoin="round" stroke-width="2" d="M71.1 68.3c-.4 0-.7-.3-.8-.7h0c0-.4.3-.8.7-.8s.8.3.8.7-.3.8-.7.8M19 63.8c.3-.3.7-.3 1 0 .3.2.3.7 0 1-.2.3-.7.2-1 0s-.3-.7 0-1q0 0 0 0" style="stroke:#480e2a"/><path fill="none" stroke="#480E2A" stroke-linecap="round" stroke-linejoin="round" stroke-width="2" d="M15.9 42.6h10.2v28H15.9M74.9 45.5h-9.1v27.9h9.1M42.6 45.9h-16M26.3 65.7h3.6s7.7 10.3 8.3 11 1.7.4 3.3-.7c.9-.7 1.2-1.8.9-2.9h0c.2.2 1.2 1.6 1.5 1.9.5.5 1.9.8 3.3-.1.9-.7 1.4-1.8 1.4-2.9.4.7.9 1.3 1.5 1.9.6.5 1.6.6 3.1-.3.9-.7 1.5-1.8 1.5-3l1.5 1.8c.7.6 1.4.8 3.3-.6 1.1-.7 1.5-2.1.9-3.3l-8.2-14.6c-.6-.8-1.4-1.4-2.3-1.7-1.7-.6-4 1-4 1s-2.7 2.9-3.5 3.7c-1.1.8-2.3 1.4-3.5 1.8-1.2 0-2.3-.1-3.3-.8-1.2-.7-.7-2.6-.7-2.6s6.8-8.5 8.9-10.2c1.1-.9 2.4-1.3 3.7-1.3h8.6l9.5 4.4M44.4 65.8l4.1 6.3M55 71l-5.8-8.1M39.5 69.1l2.8 4M65.4 66.9h-5.6" style="stroke:#480e2a"/></svg>