<svg xmlns="http://www.w3.org/2000/svg" xml:space="preserve" viewBox="0 0 90 150"><g fill="none" stroke="#480E2A" stroke-linecap="round" stroke-linejoin="round" stroke-width="2"><path d="M30.1 100.4v1.9c0 1.8-1.5 3.3-3.3 3.3s-3.3-1.5-3.3-3.3v-12c.1-1.8.4-3.7 1-5.3l.8-2.1h-1.1c-1.3-.1-2.3-1.1-2.4-2.4-.1-1.4 1-2.6 2.4-2.7h3.1l2.2-5.7c.7-1.6 2.1-2.8 3.7-3.4 0 0 3.8-1.1 11.7-1.1s11.7 1.1 11.8 1.1c1.6.6 3 1.8 3.7 3.4l2.2 5.7h3.1c1.3.1 2.3 1.1 2.4 2.4.1 1.4-1 2.6-2.4 2.7h-1.1l.8 2.1c.6 1.7.9 3.6 1 5.3v12.5c-.1 1.8-1.7 3.2-3.5 3.1s-3.2-1.7-3.1-3.5v-1.9zm19-27.2H33.7c-.6.1-1.1.4-1.3.9l-2.6 7.1c-.1.1-.1.2-.1.3.1.3.4.5.7.5h28.7c.1 0 .2-.1.3-.1.3-.1.4-.5.3-.8l-2.6-7c-.3-.5-.7-.9-1.3-.9zM32.3 90.1c0-1.4-1.2-2.5-2.6-2.5s-2.5 1.2-2.5 2.6 1.2 2.5 2.6 2.5c1.4-.1 2.5-1.2 2.5-2.6m27.6 2.6c1.4 0 2.6-1.2 2.6-2.6s-1.2-2.6-2.6-2.6-2.6 1.2-2.6 2.6 1.2 2.6 2.6 2.6" style="fill:#480e2a"/><path stroke-miterlimit="10" d="M59.3 44.1H30.4M44.8 57.8c-4.5 0 0-7.5 0-7.5m0 7.5c4.5 0 0-7.5 0-7.5m10.9 7.2c-4.2 1.6-2.5-7-2.5-7M55.7 57.5c4.3-1.5-2.5-7-2.5-7m-19.3 7c4.2 1.6 2.5-7 2.5-7M33.9 57.5c-4.3-1.5 2.5-7 2.5-7" style="fill:#480e2a"/></g></svg>