<svg xmlns="http://www.w3.org/2000/svg" xml:space="preserve" viewBox="0 0 90 120"><g fill="none" stroke="#480E2A" stroke-linecap="round" stroke-linejoin="round" stroke-width="2"><path d="M58.8 34.5h-3.4M33.5 55.3c-2.8 0-5.1 2.3-5.1 5.1s2.3 5.1 5.1 5.1 5.1-2.3 5.1-5.1-2.3-5.1-5.1-5.1m7 44.9V73.6c0-2.9-2.3-5.3-5.2-5.4h-3.7c-2.9.1-5.2 2.6-5.1 5.5v26m30-44.4q-.15 0 0 0c-2.9 0-5.2 2.3-5.2 5.1 0 2.9 2.4 5.1 5.2 5.1s5.1-2.3 5.1-5.1-2.3-5.1-5.1-5.1m6.9 44.9V73.6c.1-3-2.2-5.4-5.1-5.5h-3.7c-2.9.1-5.2 2.6-5.1 5.5v26.6m-6.8-52.6c-1.3 0-1.3-1.3-1.3-1.3v-2.9c0-2.3-1.8-4-2.6-6s-.8-4.2.1-6.1c1.1-2.3 3.5-3.8 6.1-3.8s4.9 1.5 6.1 3.8c.9 1.9.9 4.1.1 6.1s-2.6 3.7-2.6 6v2.9s-.1 1.3-1.3 1.3zM48.6 44.2h-7.1M33.8 34.5h-3.2M44.9 19.8V23M37.1 26.6l-2.4-2.2M52.7 26.6l2.3-2.2" style="fill:#480e2a"/></g></svg>