<svg xmlns="http://www.w3.org/2000/svg" xml:space="preserve" viewBox="0 0 90 120"><path fill="none" stroke="#480E2A" stroke-linecap="round" stroke-linejoin="round" stroke-width="2" d="M45.1 57.1v39.1M23.2 82.4V69.7m44 0 .1-12.5H23.1v12.5zv12.7h-44l.1 11.2c0 .9.8 1.7 1.7 1.7h40.5c1 0 1.7-.8 1.7-1.7V82.5m0-25.3V52c0-1-.8-1.7-1.7-1.7H24.9c-1 0-1.7.8-1.7 1.7v5.2" style="stroke:#480e2a"/><path fill="#480E2A" d="M31.5 63.5c0 1.9-.8 2.9-2.1 2.9s-2.1-1-2.1-2.9.8-2.9 2.1-2.9 2.1.9 2.1 2.9m-.9 0c0-2.2-.6-2.8-1.3-2.8s-1.2.6-1.2 2.7c0 2.2.6 2.8 1.2 2.8.8 0 1.3-.6 1.3-2.7m5.9 0c0 1.9-.8 2.9-2.1 2.9s-2.1-1-2.1-2.9.8-2.9 2.1-2.9 2.1.9 2.1 2.9m-.9 0c0-2.2-.6-2.8-1.3-2.8s-1.2.6-1.2 2.7c0 2.2.6 2.8 1.2 2.8.8 0 1.3-.6 1.3-2.7m3.2-2.9v5.1c0 .1 0 .1.1.2l.8.4h-2.6l.8-.4c.1-.1.1-.1.1-.2v-4.2c0-.1 0-.1-.1-.2l-.9-.2zM53.5 76.5c0 1.9-.8 2.9-2.1 2.9s-2.1-1-2.1-2.9.8-2.9 2.1-2.9 2.1 1 2.1 2.9m-.9 0c0-2.2-.6-2.8-1.3-2.8s-1.2.6-1.2 2.7c0 2.2.6 2.8 1.2 2.8.8.1 1.3-.5 1.3-2.7m5.9 0c0 1.9-.8 2.9-2.1 2.9s-2.1-1-2.1-2.9.8-2.9 2.1-2.9 2.1 1 2.1 2.9m-.9 0c0-2.2-.6-2.8-1.3-2.8s-1.2.6-1.2 2.7c0 2.2.6 2.8 1.2 2.8.8.1 1.3-.5 1.3-2.7m3.2-2.9v5.1c0 .1 0 .1.1.2l.8.4h-2.6l.8-.4c.1-.1.1-.1.1-.2v-4.2c0-.1 0-.1-.1-.2l-.9-.2zM53.5 63.5c0 1.9-.8 2.9-2.1 2.9s-2.1-1-2.1-2.9.8-2.9 2.1-2.9 2.1.9 2.1 2.9m-.9 0c0-2.2-.6-2.8-1.3-2.8s-1.2.6-1.2 2.7c0 2.2.6 2.8 1.2 2.8.8 0 1.3-.6 1.3-2.7m5.9 0c0 1.9-.8 2.9-2.1 2.9s-2.1-1-2.1-2.9.8-2.9 2.1-2.9 2.1.9 2.1 2.9m-.9 0c0-2.2-.6-2.8-1.3-2.8s-1.2.6-1.2 2.7c0 2.2.6 2.8 1.2 2.8.8 0 1.3-.6 1.3-2.7m5.9 0c0 1.9-.8 2.9-2.1 2.9s-2.1-1-2.1-2.9.8-2.9 2.1-2.9c1.4 0 2.1.9 2.1 2.9m-.8 0c0-2.2-.6-2.8-1.3-2.8s-1.2.6-1.2 2.7c0 2.2.6 2.8 1.2 2.8.7 0 1.3-.6 1.3-2.7M31.5 88.7c0 1.9-.8 2.9-2.1 2.9s-2.1-1-2.1-2.9.8-2.9 2.1-2.9 2.1 1 2.1 2.9m-.9 0c0-2.2-.6-2.8-1.3-2.8s-1.2.6-1.2 2.7c0 2.2.6 2.8 1.2 2.8.8 0 1.3-.5 1.3-2.7m5.9 0c0 1.9-.8 2.9-2.1 2.9s-2.1-1-2.1-2.9.8-2.9 2.1-2.9 2.1 1 2.1 2.9m-.9 0c0-2.2-.6-2.8-1.3-2.8s-1.2.6-1.2 2.7c0 2.2.6 2.8 1.2 2.8.8 0 1.3-.5 1.3-2.7m3.2-2.9v5.1c0 .1 0 .1.1.2l.8.4h-2.6l.8-.4c.1-.1.1-.1.1-.2v-4.2c0-.1 0-.1-.1-.2l-.9-.2zM53.5 88.7c0 1.9-.8 2.9-2.1 2.9s-2.1-1-2.1-2.9.8-2.9 2.1-2.9 2.1 1 2.1 2.9m-.9 0c0-2.2-.6-2.8-1.3-2.8s-1.2.6-1.2 2.7c0 2.2.6 2.8 1.2 2.8.8 0 1.3-.5 1.3-2.7m5.9 0c0 1.9-.8 2.9-2.1 2.9s-2.1-1-2.1-2.9.8-2.9 2.1-2.9 2.1 1 2.1 2.9m-.9 0c0-2.2-.6-2.8-1.3-2.8s-1.2.6-1.2 2.7c0 2.2.6 2.8 1.2 2.8.8 0 1.3-.5 1.3-2.7m5.9 0c0 1.9-.8 2.9-2.1 2.9s-2.1-1-2.1-2.9.8-2.9 2.1-2.9c1.4 0 2.1 1 2.1 2.9m-.8 0c0-2.2-.6-2.8-1.3-2.8s-1.2.6-1.2 2.7c0 2.2.6 2.8 1.2 2.8.7 0 1.3-.5 1.3-2.7M31.5 76.5c0 1.9-.8 2.9-2.1 2.9s-2.1-1-2.1-2.9.8-2.9 2.1-2.9 2.1 1 2.1 2.9m-.9 0c0-2.2-.6-2.8-1.3-2.8s-1.2.6-1.2 2.7c0 2.2.6 2.8 1.2 2.8.8.1 1.3-.5 1.3-2.7m5.9 0c0 1.9-.8 2.9-2.1 2.9s-2.1-1-2.1-2.9.8-2.9 2.1-2.9 2.1 1 2.1 2.9m-.9 0c0-2.2-.6-2.8-1.3-2.8s-1.2.6-1.2 2.7c0 2.2.6 2.8 1.2 2.8.8.1 1.3-.5 1.3-2.7m5.9 0c0 1.9-.8 2.9-2.1 2.9s-2.1-1-2.1-2.9.8-2.9 2.1-2.9 2.1 1 2.1 2.9m-.9 0c0-2.2-.6-2.8-1.3-2.8s-1.2.6-1.2 2.7c0 2.2.6 2.8 1.2 2.8.8.1 1.3-.5 1.3-2.7" style="fill:#480e2a"/></svg>